OpenSim_Sub08_EMGStiffKnee_GRF.mot
version=1
nRows=51
nColumns=19
inDegrees=no
endheader
time	lFx	lFy	lFz	lCOPx	lCOPy	lCOPz	rFx	rFy	rFz	rCOPx	rCOPy	rCOPz	lMx	lMy	lMz	rMx	rMy	rMz
0	-4.53755275	239.45215128	22.49905918	0.71560564	0	-0.69237115	-0.39143267	291.76936329	-23.87336941	0.73168173	0	-0.39803368	0	-3.73165899	0	0	-0.29838952	0
0.01000000	-4.64039938	239.23804828	22.33891823	0.71437020	0	-0.69243631	0.80796107	292.25319640	-23.83247051	0.73273004	0	-0.39811975	0	-3.62542918	0	0	-0.06809024	-0.00000000
0.02000000	-4.67234042	239.00938241	22.24426435	0.71335591	0	-0.69239498	1.47908198	292.49773564	-23.82784623	0.73341136	0	-0.39823254	0	-3.55386772	0	0	0.03581161	0.00000000
0.03000000	-4.65233659	238.77185852	22.18275196	0.71268818	0	-0.69233397	1.71069437	292.58339847	-23.81934214	0.73365626	0	-0.39833296	0	-3.52017694	0	0	0.06408051	-0.00000000
0.04000000	-4.62610229	238.54729949	22.14049785	0.71217875	0	-0.69228239	1.71036702	292.64206176	-23.79068997	0.73364486	0	-0.39837166	0	-3.51410121	0	0	0.06756828	0.00000000
0.05000000	-4.61178214	238.29239555	22.11638593	0.71163915	0	-0.69218806	1.62283757	292.77562067	-23.76950967	0.73351032	0	-0.39833630	0	-3.51551020	0	0	0.07127689	0.00000000
0.06000000	-4.58658351	238.08499470	22.08677507	0.71108284	0	-0.69207798	1.53502922	292.93586395	-23.76955249	0.73336263	0	-0.39831511	0	-3.51838074	0	0	0.07286078	0.00000000
0.07000000	-4.52638854	237.99648429	22.04751486	0.71057445	0	-0.69198952	1.49146180	293.10884167	-23.76598886	0.73333045	0	-0.39831282	0	-3.51512666	0	0	0.06682693	-0.00000000
0.08000000	-4.44153490	237.96061150	21.99299390	0.71016295	0	-0.69191491	1.48010547	293.25875999	-23.75372720	0.73324171	0	-0.39834605	0	-3.48791353	0	0	0.06268421	-0.00000000
0.09000000	-4.35297796	237.88734727	21.91880840	0.70974661	0	-0.69188092	1.49536939	293.41591847	-23.73135169	0.73305659	0	-0.39840371	0	-3.44877566	0	0	0.05969476	0
0.10000000	-4.28032312	237.72291805	21.83463485	0.70926997	0	-0.69188740	1.52858644	293.61872515	-23.71229897	0.73289251	0	-0.39847181	0	-3.41944060	0	0	0.05193426	0.00000000
0.11000000	-4.21932539	237.52037117	21.75608686	0.70869371	0	-0.69188605	1.58023461	293.76395915	-23.69617376	0.73276035	0	-0.39859797	0	-3.39803125	0	0	0.03670947	-0.00000000
0.12000000	-4.15552365	237.34424838	21.69167081	0.70811675	0	-0.69185247	1.63387964	293.82208833	-23.67407298	0.73248857	0	-0.39875067	0	-3.38285942	0	0	0.01823477	0.00000000
0.13000000	-4.10046872	237.19006029	21.64803189	0.70757885	0	-0.69176375	1.69206859	293.91450325	-23.64766467	0.73213526	0	-0.39887382	0	-3.37612854	0	0	0.00797029	0.00000000
0.14000000	-4.05841446	237.04904429	21.61928281	0.70701071	0	-0.69167094	1.75364968	294.06663710	-23.63015742	0.73165537	0	-0.39896429	0	-3.38469034	0	0	0.01461033	-0.00000000
0.15000000	-4.02178314	236.90995963	21.60475534	0.70645096	0	-0.69157594	1.81617312	294.22177138	-23.62868807	0.73097887	0	-0.39905907	0	-3.39710472	0	0	0.03489049	0.00000000
0.16000000	-3.97433103	236.69747853	21.59036031	0.70602730	0	-0.69146288	1.88664042	294.29258947	-23.63634757	0.73014123	0	-0.39920435	0	-3.39705825	0	0	0.06122885	0.00000000
0.17000000	-3.90624589	236.46734089	21.56209111	0.70564502	0	-0.69133162	1.97244496	294.30583687	-23.63807790	0.72935854	0	-0.39939393	0	-3.36326311	0	0	0.07764745	0.00000000
0.18000000	-3.81298487	236.26666323	21.52328562	0.70524235	0	-0.69119493	2.06521118	294.37471404	-23.62287550	0.72874022	0	-0.39958394	0	-3.31063897	0	0	0.07542253	0.00000000
0.19000000	-3.69888901	236.15744200	21.49304565	0.70464429	0	-0.69104142	2.16658437	294.55624914	-23.57584548	0.72826704	0	-0.39973289	0	-3.26005436	0	0	0.06143166	0.00000000
0.20000000	-3.58042004	236.18963930	21.47950497	0.70383010	0	-0.69090850	2.27469152	294.79607326	-23.51675168	0.72786803	0	-0.39982570	0	-3.23059911	0	0	0.05671855	0.00000000
0.21000000	-3.48468637	236.28395468	21.45610077	0.70296027	0	-0.69088003	2.38671378	295.01857018	-23.46305267	0.72742917	0	-0.39990605	0	-3.22166751	0	0	0.05829319	-0.00000000
0.22000000	-3.42495397	236.32183943	21.39812207	0.70223266	0	-0.69095212	2.50013768	295.24266653	-23.40258384	0.72693158	0	-0.39997763	0	-3.22685214	0	0	0.05233368	-0.00000000
0.23000000	-3.38959954	236.28412865	21.32667423	0.70179363	0	-0.69103151	2.61523249	295.49243993	-23.32989549	0.72639082	0	-0.40009466	0	-3.23604487	0	0	0.03328584	0.00000000
0.24000000	-3.37085109	236.15668442	21.26355998	0.70152484	0	-0.69101381	2.73423882	295.74573949	-23.26528186	0.72583022	0	-0.40028790	0	-3.23049639	0	0	0.01014634	0.00000000
0.25000000	-3.33559329	235.96283280	21.21437207	0.70125912	0	-0.69091721	2.82629778	295.91201321	-23.19089954	0.72525249	0	-0.40049067	0	-3.22405926	0	0	0.00319504	0.00000000
0.26000000	-3.25490704	235.78851545	21.16497656	0.70097387	0	-0.69084404	2.90444192	295.93468812	-23.09395144	0.72465618	0	-0.40067139	0	-3.21073902	0	0	0.01383594	-0.00000000
0.27000000	-3.16041642	235.66781397	21.11004214	0.70075964	0	-0.69084903	3.00578102	295.88428755	-22.99313180	0.72408248	0	-0.40082948	0	-3.19149041	0	0	0.02172348	0.00000000
0.28000000	-3.09073805	235.48379812	21.05315071	0.70043252	0	-0.69087105	3.14422649	295.84894635	-22.91411070	0.72347934	0	-0.40099796	0	-3.17673488	0	0	0.03075059	0.00000000
0.29000000	-3.06042931	235.16137173	21.00205318	0.69996850	0	-0.69083720	3.31244963	295.88562827	-22.86194443	0.72278505	0	-0.40119714	0	-3.16386943	0	0	0.05683248	0.00000000
0.30000000	-3.05886709	234.78557126	20.96248222	0.69946726	0	-0.69077644	3.48071145	296.04554868	-22.81770193	0.72198215	0	-0.40137076	0	-3.15320036	0	0	0.08685245	0.00000000
0.31000000	-3.07181882	234.44635285	20.91568118	0.69892921	0	-0.69075070	3.62783808	296.26722891	-22.75386793	0.72118561	0	-0.40146949	0	-3.14074267	0	0	0.11066987	0.00000000
0.32000000	-3.08777668	234.19713166	20.85530368	0.69839343	0	-0.69073287	3.73951414	296.51915359	-22.67799259	0.72060004	0	-0.40148892	0	-3.12428656	0	0	0.11126009	0.00000000
0.33000000	-3.09209751	233.98802375	20.78997412	0.69796630	0	-0.69072731	3.82565663	296.82684499	-22.60767484	0.72024665	0	-0.40145869	0	-3.11747107	0	0	0.09055915	0.00000000
0.34000000	-3.08016508	233.69827687	20.72401320	0.69778173	0	-0.69075076	3.92432832	297.14738277	-22.55068209	0.72008383	0	-0.40146786	0	-3.11776775	0	0	0.07206560	0.00000000
0.35000000	-3.07114830	233.40107026	20.67502715	0.69777723	0	-0.69077686	4.04813104	297.43717653	-22.50278967	0.71997485	0	-0.40154986	0	-3.11238896	0	0	0.07763093	0.00000000
0.36000000	-3.07605030	233.14379126	20.64534841	0.69779131	0	-0.69076302	4.18820961	297.72236534	-22.45229829	0.71977216	0	-0.40163559	0	-3.09767012	0	0	0.10364922	-0.00000000
0.37000000	-3.09127801	232.88885915	20.62294972	0.69765762	0	-0.69070823	4.34159524	298.01892995	-22.38550768	0.71943628	0	-0.40166502	0	-3.08668291	0	0	0.12849646	0.00000000
0.38000000	-3.10708051	232.62265778	20.59540344	0.69737403	0	-0.69063753	4.49643147	298.33869587	-22.32133889	0.71896475	0	-0.40166760	0	-3.07261455	0	0	0.13686850	0.00000000
0.39000000	-3.12293640	232.28989677	20.54714150	0.69715104	0	-0.69060183	4.65056302	298.66092031	-22.28258265	0.71838163	0	-0.40167218	0	-3.07565462	0	0	0.14141467	0.00000000
0.40000000	-3.12728253	231.91723487	20.47150527	0.69712615	0	-0.69063376	4.81718230	299.04672483	-22.26389828	0.71794470	0	-0.40167431	0	-3.10728500	0	0	0.13762692	0.00000000
0.41000000	-3.12029380	231.55405282	20.36918758	0.69714169	0	-0.69070234	4.94898599	299.53971924	-22.25412785	0.71761824	0	-0.40165800	0	-3.13059879	0	0	0.12707360	0.00000000
0.42000000	-3.12282730	231.28090653	20.27240941	0.69701919	0	-0.69077125	5.01888320	300.11393688	-22.25068995	0.71736465	0	-0.40161565	0	-3.13228882	0	0	0.10870452	0
0.43000000	-3.13827446	231.14393490	20.22723544	0.69674909	0	-0.69081887	5.03234298	300.61566451	-22.24332636	0.71722545	0	-0.40161366	0	-3.13060407	0	0	0.09466019	0.00000000
0.44000000	-3.18051798	231.09290826	20.23103976	0.69646302	0	-0.69083136	5.00252923	300.97024357	-22.23124220	0.71714155	0	-0.40167429	0	-3.13392926	0	0	0.09897444	0.00000000
0.45000000	-3.24678763	231.08270575	20.26355833	0.69629088	0	-0.69082774	4.94978426	301.22172541	-22.22710851	0.71708105	0	-0.40175074	0	-3.13812615	0	0	0.10438938	-0.00000000
0.46000000	-3.29901343	231.05081434	20.30250921	0.69638602	0	-0.69085391	4.88778574	301.39596718	-22.23572791	0.71706441	0	-0.40182031	0	-3.14539995	0	0	0.09661360	0.00000000
0.47000000	-3.30141268	231.00164603	20.33008740	0.69660416	0	-0.69092529	4.83545374	301.48521828	-22.24086988	0.71695315	0	-0.40186590	0	-3.15351406	0	0	0.10052489	0.00000000
0.48000000	-3.26698534	231.00585763	20.35383954	0.69670449	0	-0.69097422	4.79578376	301.48976635	-22.23539883	0.71674753	0	-0.40187227	0	-3.16206129	0	0	0.11329966	0.00000000
0.49000000	-3.22813397	231.05311845	20.38189069	0.69659137	0	-0.69093191	4.75572417	301.42317762	-22.21977061	0.71663055	0	-0.40184679	0	-3.16784845	0	0	0.11564453	-0.00000000
0.50000000	-3.19522400	231.10011259	20.42229500	0.69633772	0	-0.69079200	4.69812995	301.32029388	-22.18532258	0.71659603	0	-0.40182097	0	-3.17033008	0	0	0.10650522	0.00000000
